Coordinates
version=1
nRows=17
nColumns=36
inDegrees=yes

Units are S.I. units (second, meters, Newtons, ...)
If the header above contains a line with 'inDegrees', this indicates whether rotational values are in degrees (yes) or radians (no).

endheader
time	pelvis_tilt	pelvis_list	pelvis_rotation	pelvis_tx	pelvis_ty	pelvis_tz	hip_flexion_r	hip_adduction_r	hip_rotation_r	knee_angle_r	knee_angle_r_beta	ankle_angle_r	subtalar_angle_r	mtp_angle_r	hip_flexion_l	hip_adduction_l	hip_rotation_l	knee_angle_l	knee_angle_l_beta	ankle_angle_l	subtalar_angle_l	mtp_angle_l	lumbar_extension	lumbar_bending	lumbar_rotation	arm_flex_r	arm_add_r	arm_rot_r	elbow_flex_r	pro_sup_r	arm_flex_l	arm_add_l	arm_rot_l	elbow_flex_l	pro_sup_l
      3.63750000	     -6.25809539	     -1.31044790	      4.10439806	      0.36411207	      0.91146271	     -0.08775710	     15.52556037	     -4.62042087	      4.49718454	     14.37678090	      0.25092216	     -0.53429479	    -25.95041309	     -7.49999987	     15.81939952	     -5.80648530	     -0.03870693	     13.85521469	      0.24181911	     -2.33932173	    -22.32330204	     -7.49999987	     -7.04640184	     -0.40167373	     -0.46428872	      0.29418433	    -16.11578789	     70.13100002	      9.91605968	     23.46362508	      1.30504151	    -16.54522367	     53.27404774	     13.97315283	     42.87016143
      3.64166670	     -6.18240255	     -1.25051832	      4.15130302	      0.36425437	      0.91451070	     -0.08760680	     15.45491673	     -4.73092048	      4.48822060	     14.35038353	      0.25046144	     -0.60787057	    -25.96716729	     -7.49999987	     15.76483530	     -5.71035457	      0.06313272	     13.84953331	      0.24171996	     -2.53307159	    -22.58558235	     -7.49999987	     -7.16380860	     -0.45192567	     -0.53901616	      0.29386172	    -16.13513345	     68.77546308	      9.94680583	     25.53463638	      1.21784256	    -16.51988871	     52.31771413	     14.24713946	     44.17579641
      3.64583330	     -6.16376775	     -1.24101830	      4.14820578	      0.36430025	      0.91438615	     -0.08788017	     15.43790809	     -4.78453352	      4.47445599	     14.31406527	      0.24982757	     -0.55654969	    -25.77623096	     -7.49999987	     15.77478917	     -5.66209687	      0.04677465	     13.88779095	      0.24238768	     -2.52403306	    -22.57453972	     -7.49999987	     -7.17718538	     -0.42810177	     -0.58723677	      0.27282491	    -16.23571835	     67.63640996	     10.01058463	     27.38029902	      1.01039599	    -16.51113686	     51.60359506	     14.42365514	     45.26454877
      3.65000000	     -6.11024583	     -1.20068355	      4.18499877	      0.36426718	      0.91434543	     -0.08748942	     15.37948505	     -4.85744615	      4.33019183	     14.32155543	      0.24995830	     -0.57536928	    -25.63320313	     -7.49999987	     15.75830953	     -5.59985219	      0.06492619	     13.95765575	      0.24360705	     -2.72180277	    -22.79699848	     -7.49999987	     -7.24877133	     -0.41242301	     -0.61760116	      0.31663152	    -16.22848146	     67.13688649	     10.04359744	     28.10260075	      0.87426433	    -16.53156559	     51.40912518	     14.54843165	     45.70282968
      3.65416670	     -6.09464824	     -1.17797284	      4.23765499	      0.36414672	      0.91123280	     -0.08754079	     15.38515733	     -4.90018649	      4.17305441	     14.41347715	      0.25156263	     -0.42709011	    -25.32532842	     -7.49999987	     15.85406376	     -5.57451549	      0.14722965	     14.09897768	      0.24607358	     -2.85035609	    -23.05342240	     -7.49999987	     -7.24472389	     -0.40333770	     -0.52750594	      0.34766723	    -16.30143692	     69.40495775	     10.04330383	     24.09860601	      1.09863810	    -16.69487258	     54.39020926	     14.41988318	     43.25100853
      3.65833330	     -5.90868713	     -1.16258282	      4.37211205	      0.36406688	      0.91161658	     -0.08732687	     15.17947351	     -4.95897968	      3.93878240	     14.46079097	      0.25238841	     -0.21333045	    -25.04388209	     -7.49999987	     15.76977507	     -5.53817058	      0.20359236	     14.24874126	      0.24868745	     -2.73057989	    -22.90748165	     -7.49999987	     -7.55666696	     -0.33016333	     -0.79107210	      0.37283219	    -16.29581168	     67.51034370	      9.80605618	     27.55543358	      0.85097196	    -16.78574214	     53.06949952	     14.69979843	     45.14011989
      3.66250000	     -6.13911937	     -1.18008367	      4.35422366	      0.36412842	      0.91145269	     -0.08760654	     15.49273018	     -4.92854393	      4.06573945	     14.61838788	      0.25513900	     -0.42299113	    -25.28598103	     -7.49999987	     16.05288520	     -5.52675448	      0.27789439	     14.30591704	      0.24968535	     -2.81272794	    -23.09324460	     -7.49999987	     -7.21918428	     -0.28123791	     -0.75032947	      0.26789492	    -16.32859641	     66.93931670	      9.90283019	     28.50960711	      0.59333000	    -16.88642663	     52.66115601	     15.03071968	     45.70722579
      3.66666670	     -6.02064268	     -1.21870628	      4.43779351	      0.36405215	      0.91466422	     -0.08754133	     15.37929455	     -4.87768434	      3.98512127	     14.71264324	      0.25678407	     -0.52100574	    -25.47190185	     -7.49999987	     15.97017039	     -5.53367430	      0.44715282	     14.34033318	      0.25028603	     -2.80668612	    -23.16942062	     -7.49999987	     -7.42371814	     -0.18880902	     -0.78672136	      0.34021920	    -16.30530851	     66.68392974	      9.93754773	     28.93270239	      0.62013589	    -16.84133866	     52.57108280	     14.97726216	     45.92490623
      3.67083330	     -5.85628824	     -1.22957957	      4.54699031	      0.36398193	      0.91468555	     -0.08798526	     15.14389844	     -4.87334120	      3.80029016	     14.67481631	      0.25612386	     -0.36241941	    -25.35872761	     -7.49999987	     15.79399931	     -5.51372667	      0.52912900	     14.30783722	      0.24971887	     -2.68597380	    -23.00281645	     -7.49999987	     -7.67834348	     -0.10959843	     -0.94216860	      0.41646762	    -16.28585997	     65.51514897	     10.03664062	     30.52054772	      0.49004795	    -16.82836061	     51.84164097	     15.11516537	     46.78607586
      3.67500000	     -5.96494275	     -1.30926886	      4.66734265	      0.36380729	      0.91135270	     -0.08743563	     15.23869336	     -4.81086656	      3.76437925	     14.63616432	      0.25544926	     -0.23979658	    -25.37468907	     -7.49999987	     15.98232189	     -5.57750027	      0.57207654	     14.38141806	      0.25100310	     -2.54715100	    -22.86828910	     -7.49999987	     -7.44856554	      0.00507657	     -0.83847993	      0.42029880	    -16.31725454	     69.04484813	     10.00975230	     24.59351197	      0.81558226	    -16.82434422	     55.36361007	     14.72523452	     43.50372655
      3.67916670	     -5.94149606	     -1.33948857	      4.86013349	      0.36367565	      0.91144409	     -0.08799950	     15.16249943	     -4.82068297	      3.50409062	     14.61296386	      0.25504433	     -0.20037506	    -25.42735173	     -7.49999987	     15.96681300	     -5.56079283	      0.81854737	     14.29867310	      0.24955892	     -2.59577491	    -23.03824834	     -7.49999987	     -7.50146258	      0.08828961	     -1.04643633	      0.41246763	    -16.36979358	     68.39266103	     10.27319939	     25.16198163	      0.70589529	    -16.89443207	     54.88208151	     14.90818523	     43.80404224
      3.68333330	     -5.79499917	     -1.33569714	      4.93801579	      0.36352484	      0.91176869	     -0.08767052	     14.97247984	     -4.80827853	      3.42764942	     14.57979243	      0.25446538	     -0.07244547	    -25.57140931	     -7.49999987	     15.83945923	     -5.57245319	      0.80922174	     14.30606058	      0.24968786	     -2.29486383	    -22.71659045	     -7.49999987	     -7.77653819	      0.12793334	     -1.16893229	      0.57901492	    -16.30452148	     66.91421009	      9.99720281	     28.58072367	      0.60284744	    -16.92774099	     54.00085264	     15.17769444	     45.24054187
      3.68750000	     -5.85832688	     -1.33189298	      5.03024296	      0.36346990	      0.91160494	     -0.08801621	     15.01001181	     -4.82882598	      3.35543291	     14.57102807	      0.25431242	      0.09269312	    -25.62436827	     -7.49999987	     15.90066592	     -5.56861921	      0.80649303	     14.25253669	      0.24875369	     -2.21284161	    -22.58669656	     -7.49999987	     -7.67182719	      0.11385645	     -1.28527086	      0.71078512	    -16.23617817	     66.03150484	     10.08303519	     29.40485782	      0.43089449	    -16.94204847	     53.57373036	     15.28997424	     45.68507506
      3.69166670	     -5.82395354	     -1.34931720	      5.15497023	      0.36337667	      0.91173234	     -0.08770370	     14.94978336	     -4.81163181	      3.23405126	     14.58198885	      0.25450372	      0.09859405	    -25.73974886	     -7.49999987	     15.86868159	     -5.61159569	      0.74438580	     14.25100945	      0.24872704	     -2.20829775	    -22.63053884	     -7.49999987	     -7.71766715	      0.12770979	     -1.42461313	      0.71666801	    -16.22108580	     64.65840358	     10.12874551	     30.65986417	      0.34273876	    -16.97245646	     52.73071123	     15.43169368	     46.40998456
      3.69583330	     -5.86341763	     -1.34634751	      5.22066141	      0.35932805	      0.91173562	     -0.09225244	     15.06526892	     -4.93565669	      3.14269704	     14.59330689	      0.25470125	      0.11513236	    -25.74086760	     -7.49999987	     15.97620586	     -5.51512832	      0.71992213	     14.19694026	      0.24778335	     -2.12893931	    -22.62592989	     -7.49999987	     -7.76459486	      0.21085002	     -1.47556216	      0.82580771	    -16.34046261	     64.65175955	     10.07585692	     30.61348684	      0.46294419	    -16.80458708	     52.77172245	     15.45016711	     46.40220265
      3.70000000	     -5.96082291	     -1.38388430	      5.46055767	      0.35926783	      0.91163245	     -0.09202336	     15.22570290	     -5.05404214	      2.87702885	     14.61552737	      0.25508907	     -0.12912770	    -25.92166385	     -7.49999987	     16.18641086	     -5.41822007	      0.99613200	     14.14664079	      0.24690546	     -2.13354137	    -22.70149929	     -7.49999987	     -7.72670317	      0.30924940	     -1.84214602	      1.09700471	    -16.33838712	     63.42753691	     10.12130160	     32.15435139	      0.36419544	    -16.71956599	     52.18477389	     15.63651646	     47.35732516
      3.70416670	     -5.94960281	     -1.42560754	      5.60963939	      0.35930772	      0.91463052	     -0.09273732	     15.27705267	     -5.13756917	      2.59171910	     14.70458091	      0.25664335	      0.04239289	    -25.41219990	     -7.49999987	     16.19804690	     -5.34378766	      1.04068588	     14.00928455	      0.24450814	     -1.85490668	    -22.27501497	     -7.49999987	     -7.81434795	      0.43310620	     -1.72368926	      1.30415652	    -16.46528234	     66.68930976	     10.19413790	     25.38995548	      1.09187400	    -16.47368355	     56.92474104	     14.75691489	     42.35937297
